HIERARCHY
ROOT root
{
	OFFSET 0.000000 0.000000 0.000000
	CHANNELS 6 Xposition Yposition Zposition Zrotation Yrotation Xrotation
	JOINT lhip
	{
		OFFSET 0.058581 -0.082280 -0.017664
		CHANNELS 3 Zrotation Yrotation Xrotation
		JOINT lknee
		{
			OFFSET 0.043451 -0.386469 0.008037
			CHANNELS 3 Zrotation Yrotation Xrotation
			JOINT lankle
			{
				OFFSET -0.014790 -0.426874 -0.037428
				CHANNELS 3 Zrotation Yrotation Xrotation
				JOINT ltoe
				{
					OFFSET 0.041054 -0.060286 0.122042
					CHANNELS 3 Zrotation Yrotation Xrotation
					End Site
					{
						OFFSET 0.000000 0.000000 0.000000
					}
				}
			}
		}
	}
	JOINT rhip
	{
		OFFSET -0.060310 -0.090513 -0.013543
		CHANNELS 3 Zrotation Yrotation Xrotation
		JOINT rknee
		{
			OFFSET -0.043257 -0.383688 -0.004843
			CHANNELS 3 Zrotation Yrotation Xrotation
			JOINT rankle
			{
				OFFSET 0.019056 -0.420046 -0.034562
				CHANNELS 3 Zrotation Yrotation Xrotation
				JOINT rtoe
				{
					OFFSET -0.034840 -0.062106 0.130323
					CHANNELS 3 Zrotation Yrotation Xrotation
					End Site
					{
						OFFSET 0.000000 0.000000 0.000000
					}
				}
			}
		}
	}
	JOINT lowerback
	{
		OFFSET 0.004439 0.124404 -0.038385
		CHANNELS 3 Zrotation Yrotation Xrotation
		JOINT upperback
		{
			OFFSET 0.004488 0.137956 0.026820
			CHANNELS 3 Zrotation Yrotation Xrotation
			JOINT chest
			{
				OFFSET -0.002265 0.056032 0.002855
				CHANNELS 3 Zrotation Yrotation Xrotation
				JOINT lowerneck
				{
					OFFSET -0.013390 0.211636 -0.033468
					CHANNELS 3 Zrotation Yrotation Xrotation
					JOINT upperneck
					{
						OFFSET 0.010113 0.088937 0.050410
						CHANNELS 3 Zrotation Yrotation Xrotation
						End Site
						{
							OFFSET 0.000000 0.000000 0.000000
						}
					}
				}
				JOINT lclavicle
				{
					OFFSET 0.071702 0.114000 -0.018898
					CHANNELS 3 Zrotation Yrotation Xrotation
					JOINT lshoulder
					{
						OFFSET 0.122921 0.045205 -0.019046
						CHANNELS 3 Zrotation Yrotation Xrotation
						JOINT lelbow
						{
							OFFSET 0.255332 -0.015649 -0.022946
							CHANNELS 3 Zrotation Yrotation Xrotation
							JOINT lwrist
							{
								OFFSET 0.265709 0.012698 -0.007375
								CHANNELS 3 Zrotation Yrotation Xrotation
								End Site
								{
									OFFSET 0.000000 0.000000 0.000000
								}
							}
						}
					}
				}
				JOINT rclavicle
				{
					OFFSET -0.082954 0.112472 -0.023707
					CHANNELS 3 Zrotation Yrotation Xrotation
					JOINT rshoulder
					{
						OFFSET -0.113228 0.046853 -0.008472
						CHANNELS 3 Zrotation Yrotation Xrotation
						JOINT relbow
						{
							OFFSET -0.260127 -0.014369 -0.031269
							CHANNELS 3 Zrotation Yrotation Xrotation
							JOINT rwrist
							{
								OFFSET -0.269108 0.006794 -0.006027
								CHANNELS 3 Zrotation Yrotation Xrotation
								End Site
								{
									OFFSET 0.000000 0.000000 0.000000
								}
							}
						}
					}
				}
			}
		}
	}
}
MOTION
Frames: 10
Frame Time: 0.033333
0.207069 0.113888 0.999991 82.017126 -6.594567 83.882637 5.808428 -1.491303 -12.651500 -2.000709 0.689723 23.730615 -4.989676 3.809849 -4.547218 0.000000 -0.000000 0.000000 -6.923836 -2.604129 5.878976 1.515371 -2.684399 -0.895895 -0.996443 -2.323243 -8.680573 0.000000 -0.000000 0.000000 7.363467 -2.005688 10.328173 1.632473 -7.343900 2.372780 1.009962 -3.894210 -1.678355 -13.254623 7.932076 18.543169 -6.473457 11.493128 -1.846926 -13.975876 -4.050687 10.836342 -68.225932 -12.031330 10.074198 22.033414 -55.141904 8.093570 -2.548475 -21.901380 -19.709032 8.676757 1.580996 5.668224 52.607824 3.819430 0.540333 -10.510699 12.868124 0.916938 11.084500 13.379209 -12.724776 
0.209689 0.118294 0.998834 82.541938 -6.186879 84.087450 5.480133 -0.932727 -10.778002 -1.843169 -0.226958 22.942762 -4.655890 3.849007 -6.122528 0.000000 -0.000000 0.000000 -6.950259 -2.578903 5.815712 1.709096 -3.062755 -0.796649 -0.387124 -2.480116 -8.883347 0.000000 -0.000000 0.000000 6.649636 -1.602881 10.486435 1.687163 -7.096078 2.103563 1.103479 -3.892454 -1.257820 -12.468361 7.695865 19.119907 -6.281402 10.808566 -2.021007 -14.110910 -4.191920 11.062713 -68.526513 -11.424504 10.250002 18.906181 -51.584587 10.987965 -2.271278 -20.993221 -19.608287 9.015046 1.763606 5.614087 53.118753 4.098852 1.286058 -10.597502 14.466044 0.595022 9.263350 13.196274 -14.275272 
0.211757 0.123677 0.997409 83.503556 -5.497104 84.584461 5.497483 -0.449481 -9.417971 -1.683949 -1.261801 21.036926 -4.478941 3.686922 -7.386915 0.000000 -0.000000 0.000000 -6.691768 -2.688247 5.463631 1.871659 -3.663892 -0.763867 -0.159297 -2.736039 -8.929991 0.000000 -0.000000 0.000000 6.332380 -1.472706 10.258480 1.724514 -7.034739 2.218545 1.103281 -3.862570 -1.228419 -11.705193 7.490541 19.695557 -5.964155 10.046534 -2.171263 -14.038160 -4.150190 11.172477 -68.687055 -10.850246 10.068691 16.284647 -47.737048 12.857380 -2.051743 -20.366502 -19.734525 9.100995 1.943722 5.431829 54.112096 4.777610 2.062461 -10.861716 15.745248 0.515005 8.004179 13.298177 -15.608272 
0.214098 0.131806 0.995257 84.938856 -4.640170 85.257473 5.456655 0.164443 -8.062346 -1.380131 -2.584054 17.968730 -4.193822 3.112527 -9.054997 0.000000 -0.000000 0.000000 -6.413433 -2.795556 4.980578 2.007410 -4.639358 -0.767458 0.163915 -3.147368 -8.886018 0.000000 -0.000000 0.000000 5.913237 -1.373179 10.077812 1.803575 -7.023175 2.208184 1.128530 -3.824955 -1.191480 -10.789175 7.111286 20.686336 -5.496928 8.985522 -2.314422 -13.938703 -4.032001 11.345383 -68.556432 -10.280317 9.543684 14.295934 -42.891779 13.828398 -1.995026 -19.749406 -19.800801 9.247736 2.148323 5.239034 55.372457 5.683618 3.149141 -11.248177 17.933103 0.816307 6.812438 13.677834 -17.234428 
0.215312 0.137543 0.993999 85.875001 -4.174864 85.644274 5.308333 0.316977 -7.450368 -1.196366 -3.146914 16.485861 -3.961065 2.910050 -10.529452 0.000000 -0.000000 0.000000 -6.333014 -2.864961 4.739375 2.042513 -5.256113 -0.808338 0.463900 -3.411730 -8.873565 0.000000 -0.000000 0.000000 5.617748 -1.276091 10.075446 1.858808 -7.040489 2.108146 1.180433 -3.805419 -1.133441 -10.242780 6.828448 21.386631 -5.228125 8.282539 -2.258631 -13.938615 -3.963892 11.420653 -68.301242 -9.977809 9.085969 13.659570 -40.148213 14.259313 -2.593926 -19.473431 -19.043279 9.389326 2.230309 5.167504 55.976625 6.086627 3.767053 -11.432213 19.839108 1.221482 6.211898 13.979897 -18.125194 
0.216804 0.146291 0.992573 87.103947 -3.511912 86.226476 5.130372 0.272251 -6.917221 -0.978736 -3.607973 15.342795 -3.801529 2.836788 -11.837923 0.000000 -0.000000 0.000000 -6.229693 -2.975210 4.338698 2.066800 -6.074134 -0.826626 0.772548 -3.729282 -8.876865 0.000000 -0.000000 0.000000 5.276637 -1.077994 9.959895 1.976170 -7.015910 2.084640 1.232793 -3.761712 -1.101010 -9.479300 6.322192 22.512330 -4.846033 7.272416 -2.007150 -13.973244 -3.809218 11.474236 -67.841439 -9.647569 8.472133 13.250525 -36.940950 14.629667 -3.927458 -18.909956 -17.525352 9.629821 2.285864 5.114958 56.608912 6.536203 4.512271 -11.623958 22.588441 1.895702 5.495391 14.482199 -19.280049 
0.218412 0.156228 0.990930 88.166067 -2.751078 86.848683 5.110330 0.227939 -6.445930 -0.717038 -3.928201 14.570964 -3.896605 2.635050 -12.391429 0.000000 -0.000000 0.000000 -6.116726 -3.115399 3.827520 2.088634 -6.818187 -0.693210 1.074979 -3.924379 -8.893493 0.000000 -0.000000 0.000000 4.971146 -0.787995 9.739929 2.156903 -6.887730 2.135685 1.311714 -3.663090 -0.992201 -8.637179 5.665818 23.869425 -4.325522 6.175832 -1.672067 -13.927770 -3.576005 11.456187 -67.455554 -9.386516 7.914929 13.212760 -34.301756 14.751970 -5.108936 -18.356888 -16.266493 9.759602 2.215898 5.082804 57.069645 6.830161 5.184385 -11.874139 25.916553 3.035291 5.288983 14.749058 -20.396129 
0.219933 0.167364 0.989040 88.972039 -1.981422 87.459436 5.173778 0.605103 -5.855525 -0.369710 -4.071132 12.424115 -3.709051 1.939282 -12.514684 0.000000 -0.000000 0.000000 -6.084224 -3.249859 3.263695 2.087322 -7.473754 -0.488597 1.415617 -3.966838 -8.845563 0.000000 -0.000000 0.000000 4.619378 -0.498923 9.673975 2.331034 -6.592611 2.074883 1.478550 -3.570799 -0.831573 -7.828092 4.794680 25.424089 -3.780617 5.387513 -1.392780 -13.879336 -3.188522 11.457167 -67.030805 -9.104994 7.340777 13.201410 -32.430214 14.572173 -5.757537 -18.088427 -15.268495 9.700109 2.115401 5.016235 57.508592 7.190464 5.721853 -12.275765 29.004354 3.794754 5.543478 15.336261 -20.808230 
0.221316 0.179977 0.986973 89.668042 -1.250567 88.069280 5.201636 1.277167 -5.482703 -0.431617 -4.242322 9.801107 -2.706588 1.233183 -11.364853 0.000000 -0.000000 0.000000 -6.157764 -3.459347 2.646330 2.039714 -7.964999 -0.240364 1.579989 -4.050231 -8.687402 0.000000 -0.000000 0.000000 4.282758 -0.298303 9.778705 2.470602 -6.281045 1.856365 1.655187 -3.521759 -0.625771 -7.189643 3.767986 26.858262 -3.126059 4.988366 -1.006483 -13.906764 -2.644412 11.492881 -66.445986 -8.746014 6.791124 12.909292 -31.378366 14.271461 -5.768416 -17.864956 -14.594114 9.589347 2.021809 4.898523 57.842895 7.600091 6.172470 -12.819793 31.766365 3.955039 5.992072 16.045761 -20.694079 
0.222073 0.197057 0.985091 90.586300 -0.504616 88.994039 4.590841 1.115734 -5.880275 -0.410849 -4.424026 8.164926 -0.763694 1.204641 -11.196454 0.000000 -0.000000 0.000000 -6.320551 -3.469137 1.489576 1.698194 -8.350969 0.384077 2.013493 -4.712053 -8.487630 0.000000 -0.000000 0.000000 3.708099 -0.070464 9.995521 2.735247 -6.017579 1.260754 1.795792 -3.531061 -0.111954 -6.251445 2.465429 28.096990 -2.311050 4.337184 -0.075388 -14.019713 -1.826092 11.605384 -65.557587 -8.591621 6.423401 12.364687 -30.504290 13.984312 -5.396088 -17.875072 -14.143718 9.842342 1.651252 4.681290 57.987566 8.116602 6.993163 -14.092595 34.875771 3.525578 6.229407 16.625453 -20.375400 
